<svg xmlns="http://www.w3.org/2000/svg" viewBox="0 0 1071 783.83"><defs><style>.cls-1,.cls-2,.cls-6{fill:none;}.cls-1,.cls-2,.cls-3,.cls-4{stroke:#666;stroke-miterlimit:10;}.cls-1,.cls-3{stroke-width:3px;}.cls-3,.cls-4,.cls-5{fill:#666;}</style></defs><title>Ресурс 5</title><g id="Слой_2" data-name="Слой 2"><g id="garland"><path class="cls-1" d="M21.5,144.83c-13,0-20-10.52-20-23.5A23.5,23.5,0,0,1,25,97.83"/><path class="cls-2" d="M231,144.83"/><path class="cls-1" d="M20.5,144.83c9.66,0,18,7.84,18,17.5"/><line class="cls-3" x1="38.5" y1="730.83" x2="38.5" y2="161.83"/><line class="cls-1" x1="24.5" y1="97.83" x2="969.5" y2="97.83"/><rect class="cls-4" x="33.56" y="730.33" width="10" height="12"/><rect class="cls-4" x="30.56" y="768.33" width="3" height="15"/><rect class="cls-4" x="43.56" y="768.33" width="3" height="15"/><path class="cls-4" d="M49.91,754.3l-.21-.36-.37-.64H27.42a1.33,1.33,0,0,0-1.33,1.33v13.23a1.33,1.33,0,0,0,1.33,1.33H49.58a1.33,1.33,0,0,0,1.33-1.33V754.63a1.33,1.33,0,0,0-1.33-1.33h-.25L43,742.39H34l-6.37,10.92-.58,1"/><circle class="cls-2" cx="574.25" cy="84.71" r="5"/><rect class="cls-5" x="568.5" y="97.46" width="11" height="4"/><rect class="cls-4" x="570.25" y="91.21" width="8" height="1.5"/><rect class="cls-4" x="570.75" y="92.71" width="7" height="5"/><rect class="cls-4" x="572.25" y="89.71" width="4" height="1.5"/><circle class="cls-2" cx="503.25" cy="83.71" r="5"/><rect class="cls-5" x="497.5" y="96.46" width="11" height="4"/><rect class="cls-4" x="499.25" y="90.21" width="8" height="1.5"/><rect class="cls-4" x="499.75" y="91.71" width="7" height="5"/><rect class="cls-4" x="501.25" y="88.71" width="4" height="1.5"/><circle class="cls-2" cx="432.25" cy="83.71" r="5"/><rect class="cls-5" x="426.5" y="96.46" width="11" height="4"/><rect class="cls-4" x="428.25" y="90.21" width="8" height="1.5"/><rect class="cls-4" x="428.75" y="91.71" width="7" height="5"/><rect class="cls-4" x="430.25" y="88.71" width="4" height="1.5"/><circle class="cls-2" cx="361.25" cy="83.71" r="5"/><rect class="cls-5" x="355.5" y="96.46" width="11" height="4"/><rect class="cls-4" x="357.25" y="90.21" width="8" height="1.5"/><rect class="cls-4" x="357.75" y="91.71" width="7" height="5"/><rect class="cls-4" x="359.25" y="88.71" width="4" height="1.5"/><circle class="cls-2" cx="716.25" cy="83.71" r="5"/><rect class="cls-5" x="710.5" y="96.46" width="11" height="4"/><rect class="cls-4" x="712.25" y="90.21" width="8" height="1.5"/><rect class="cls-4" x="712.75" y="91.71" width="7" height="5"/><rect class="cls-4" x="714.25" y="88.71" width="4" height="1.5"/><circle class="cls-2" cx="644.25" cy="83.71" r="5"/><rect class="cls-5" x="638.5" y="96.46" width="11" height="4"/><rect class="cls-4" x="640.25" y="90.21" width="8" height="1.5"/><rect class="cls-4" x="640.75" y="91.71" width="7" height="5"/><rect class="cls-4" x="642.25" y="88.71" width="4" height="1.5"/><circle class="cls-2" cx="857.25" cy="83.71" r="5"/><rect class="cls-5" x="851.5" y="96.46" width="11" height="4"/><rect class="cls-4" x="853.25" y="90.21" width="8" height="1.5"/><rect class="cls-4" x="853.75" y="91.71" width="7" height="5"/><rect class="cls-4" x="855.25" y="88.71" width="4" height="1.5"/><circle class="cls-2" cx="928.25" cy="83.71" r="5"/><rect class="cls-5" x="922.5" y="96.46" width="11" height="4"/><rect class="cls-4" x="924.25" y="90.21" width="8" height="1.5"/><rect class="cls-4" x="924.75" y="91.71" width="7" height="5"/><rect class="cls-4" x="926.25" y="88.71" width="4" height="1.5"/><circle class="cls-2" cx="786.25" cy="83.71" r="5"/><rect class="cls-5" x="780.5" y="96.46" width="11" height="4"/><rect class="cls-4" x="782.25" y="90.21" width="8" height="1.5"/><rect class="cls-4" x="782.75" y="91.71" width="7" height="5"/><rect class="cls-4" x="784.25" y="88.71" width="4" height="1.5"/><circle class="cls-2" cx="290.25" cy="83.71" r="5"/><rect class="cls-5" x="284.5" y="96.46" width="11" height="4"/><rect class="cls-4" x="286.25" y="90.21" width="8" height="1.5"/><rect class="cls-4" x="286.75" y="91.71" width="7" height="5"/><rect class="cls-4" x="288.25" y="88.71" width="4" height="1.5"/><circle class="cls-2" cx="219.25" cy="83.71" r="5"/><rect class="cls-5" x="213.5" y="96.46" width="11" height="4"/><rect class="cls-4" x="215.25" y="90.21" width="8" height="1.5"/><rect class="cls-4" x="215.75" y="91.71" width="7" height="5"/><rect class="cls-4" x="217.25" y="88.71" width="4" height="1.5"/><circle class="cls-2" cx="219.25" cy="294.71" r="5"/><rect class="cls-5" x="213.5" y="307.46" width="11" height="4"/><rect class="cls-4" x="215.25" y="301.21" width="8" height="1.5"/><rect class="cls-4" x="215.75" y="302.71" width="7" height="5"/><rect class="cls-4" x="217.25" y="299.71" width="4" height="1.5"/><circle class="cls-2" cx="338.25" cy="294.71" r="5"/><rect class="cls-5" x="332.5" y="307.46" width="11" height="4"/><rect class="cls-4" x="334.25" y="301.21" width="8" height="1.5"/><rect class="cls-4" x="334.75" y="302.71" width="7" height="5"/><rect class="cls-4" x="336.25" y="299.71" width="4" height="1.5"/><circle class="cls-2" cx="690.25" cy="294.71" r="5"/><rect class="cls-5" x="684.5" y="307.46" width="11" height="4"/><rect class="cls-4" x="686.25" y="301.21" width="8" height="1.5"/><rect class="cls-4" x="686.75" y="302.71" width="7" height="5"/><rect class="cls-4" x="688.25" y="299.71" width="4" height="1.5"/><circle class="cls-2" cx="810.25" cy="294.71" r="5"/><rect class="cls-5" x="804.5" y="307.46" width="11" height="4"/><rect class="cls-4" x="806.25" y="301.21" width="8" height="1.5"/><rect class="cls-4" x="806.75" y="302.71" width="7" height="5"/><rect class="cls-4" x="808.25" y="299.71" width="4" height="1.5"/><circle class="cls-2" cx="927.25" cy="294.71" r="5"/><rect class="cls-5" x="921.5" y="307.46" width="11" height="4"/><rect class="cls-4" x="923.25" y="301.21" width="8" height="1.5"/><rect class="cls-4" x="923.75" y="302.71" width="7" height="5"/><rect class="cls-4" x="925.25" y="299.71" width="4" height="1.5"/><circle class="cls-2" cx="574.25" cy="294.71" r="5"/><rect class="cls-5" x="568.5" y="307.46" width="11" height="4"/><rect class="cls-4" x="570.25" y="301.21" width="8" height="1.5"/><rect class="cls-4" x="570.75" y="302.71" width="7" height="5"/><rect class="cls-4" x="572.25" y="299.71" width="4" height="1.5"/><circle class="cls-2" cx="456.25" cy="294.71" r="5"/><rect class="cls-5" x="450.5" y="307.46" width="11" height="4"/><rect class="cls-4" x="452.25" y="301.21" width="8" height="1.5"/><rect class="cls-4" x="452.75" y="302.71" width="7" height="5"/><rect class="cls-4" x="454.25" y="299.71" width="4" height="1.5"/><circle class="cls-2" cx="219.25" cy="505.71" r="5"/><rect class="cls-5" x="213.5" y="518.46" width="11" height="4"/><rect class="cls-4" x="215.25" y="512.21" width="8" height="1.5"/><rect class="cls-4" x="215.75" y="513.71" width="7" height="5"/><rect class="cls-4" x="217.25" y="510.71" width="4" height="1.5"/><circle class="cls-2" cx="219.25" cy="716.71" r="5"/><rect class="cls-5" x="213.5" y="729.46" width="11" height="4"/><rect class="cls-4" x="215.25" y="723.21" width="8" height="1.5"/><rect class="cls-4" x="215.75" y="724.71" width="7" height="5"/><rect class="cls-4" x="217.25" y="721.71" width="4" height="1.5"/><circle class="cls-2" cx="386.25" cy="716.71" r="5"/><rect class="cls-5" x="380.5" y="729.46" width="11" height="4"/><rect class="cls-4" x="382.25" y="723.21" width="8" height="1.5"/><rect class="cls-4" x="382.75" y="724.71" width="7" height="5"/><rect class="cls-4" x="384.25" y="721.71" width="4" height="1.5"/><circle class="cls-2" cx="551.25" cy="716.71" r="5"/><rect class="cls-5" x="545.5" y="729.46" width="11" height="4"/><rect class="cls-4" x="547.25" y="723.21" width="8" height="1.5"/><rect class="cls-4" x="547.75" y="724.71" width="7" height="5"/><rect class="cls-4" x="549.25" y="721.71" width="4" height="1.5"/><circle class="cls-2" cx="715.25" cy="716.71" r="5"/><rect class="cls-5" x="709.5" y="729.46" width="11" height="4"/><rect class="cls-4" x="711.25" y="723.21" width="8" height="1.5"/><rect class="cls-4" x="711.75" y="724.71" width="7" height="5"/><rect class="cls-4" x="713.25" y="721.71" width="4" height="1.5"/><circle class="cls-2" cx="882.25" cy="715.71" r="5"/><rect class="cls-5" x="876.5" y="728.46" width="11" height="4"/><rect class="cls-4" x="878.25" y="722.21" width="8" height="1.5"/><rect class="cls-4" x="878.75" y="723.71" width="7" height="5"/><rect class="cls-4" x="880.25" y="720.71" width="4" height="1.5"/><circle class="cls-2" cx="361.25" cy="505.71" r="5"/><rect class="cls-5" x="355.5" y="518.46" width="11" height="4"/><rect class="cls-4" x="357.25" y="512.21" width="8" height="1.5"/><rect class="cls-4" x="357.75" y="513.71" width="7" height="5"/><rect class="cls-4" x="359.25" y="510.71" width="4" height="1.5"/><circle class="cls-2" cx="503.25" cy="505.71" r="5"/><rect class="cls-5" x="497.5" y="518.46" width="11" height="4"/><rect class="cls-4" x="499.25" y="512.21" width="8" height="1.5"/><rect class="cls-4" x="499.75" y="513.71" width="7" height="5"/><rect class="cls-4" x="501.25" y="510.71" width="4" height="1.5"/><circle class="cls-2" cx="644.25" cy="505.71" r="5"/><rect class="cls-5" x="638.5" y="518.46" width="11" height="4"/><rect class="cls-4" x="640.25" y="512.21" width="8" height="1.5"/><rect class="cls-4" x="640.75" y="513.71" width="7" height="5"/><rect class="cls-4" x="642.25" y="510.71" width="4" height="1.5"/><circle class="cls-2" cx="786.25" cy="505.71" r="5"/><rect class="cls-5" x="780.5" y="518.46" width="11" height="4"/><rect class="cls-4" x="782.25" y="512.21" width="8" height="1.5"/><rect class="cls-4" x="782.75" y="513.71" width="7" height="5"/><rect class="cls-4" x="784.25" y="510.71" width="4" height="1.5"/><circle class="cls-2" cx="928.25" cy="506.71" r="5"/><rect class="cls-5" x="922.5" y="519.46" width="11" height="4"/><rect class="cls-4" x="924.25" y="513.21" width="8" height="1.5"/><rect class="cls-4" x="924.75" y="514.71" width="7" height="5"/><rect class="cls-4" x="926.25" y="511.71" width="4" height="1.5"/><line class="cls-6" x1="728" y1="101.33" x2="728" y2="238.33"/><line class="cls-2" x1="219.5" y1="36.83" x2="928.5" y2="37.83"/><line class="cls-4" x1="608.75" y1="25.38" x2="722.57" y2="25.08"/><line class="cls-4" x1="430.93" y1="25.84" x2="565.5" y2="25.48"/><line class="cls-2" x1="714.91" y1="28.14" x2="722.57" y2="25.08"/><line class="cls-2" x1="714.91" y1="22.01" x2="722.57" y2="25.08"/><line class="cls-2" x1="438.88" y1="22.78" x2="431.23" y2="25.84"/><line class="cls-2" x1="438.88" y1="28.9" x2="431.23" y2="25.84"/><path class="cls-1" d="M974.28,98.33A105.5,105.5,0,0,1,964,308.83"/><path class="cls-1" d="M964,97.83q5.2,0,10.28.49"/><path class="cls-1" d="M179.14,519.83C124.51,516,81.37,470.28,81.37,414.47c0-58.34,47.12-105.63,105.25-105.63"/><path class="cls-1" d="M963,519.83a105.5,105.5,0,0,1,0,211"/><line class="cls-1" x1="187" y1="308.83" x2="179.5" y2="308.83"/><line class="cls-1" x1="964" y1="308.83" x2="187" y2="308.83"/><path class="cls-1" d="M964,308.83"/><line class="cls-1" x1="179.5" y1="519.83" x2="963" y2="519.83"/><line class="cls-1" x1="965.5" y1="730.83" x2="151.5" y2="730.83"/><line class="cls-2" x1="928.5" y1="38.33" x2="928.5" y2="58.33"/><line class="cls-2" x1="219.5" y1="36.83" x2="219.5" y2="57.83"/><path class="cls-5" d="M583.79,18.23a3.91,3.91,0,0,1-.92,2.68,4.61,4.61,0,0,1-2.61,1.39v.09a4.9,4.9,0,0,1,3.06,1.31,3.86,3.86,0,0,1,1,2.77,4.49,4.49,0,0,1-1.7,3.77,7.73,7.73,0,0,1-4.83,1.32,14,14,0,0,1-2.49-.21,8.52,8.52,0,0,1-2.2-.72V28.79a11.22,11.22,0,0,0,4.76,1.13q4.44,0,4.44-3.48,0-3.12-4.9-3.12h-1.69V21.64h1.71a5.15,5.15,0,0,0,3.18-.88,2.9,2.9,0,0,0,1.17-2.46,2.42,2.42,0,0,0-.86-2,3.55,3.55,0,0,0-2.34-.71,7.21,7.21,0,0,0-2.12.3A9.49,9.49,0,0,0,574.18,17l-1-1.31a8.21,8.21,0,0,1,2.43-1.31,8.84,8.84,0,0,1,2.9-.47,5.93,5.93,0,0,1,3.88,1.14A3.85,3.85,0,0,1,583.79,18.23Z"/><path class="cls-5" d="M594.45,29.46l.36-1.09.5-1.38,3.48-8.47h2.47V31.33h-1.72V20.73l-.23.68-.68,1.79-3.32,8.13h-1.63l-3.32-8.16a24,24,0,0,1-.86-2.45V31.33h-1.73V18.51h2.38l3.36,8.14A29.43,29.43,0,0,1,594.45,29.46Z"/><path class="cls-5" d="M912.91,23.93H885.32V.37h2.74V21.45h9.67V.37h2.74V21.45h9.67V.37h2.77Z"/><path class="cls-5" d="M929.85,23.93l-.53-2.51h-.13a7.43,7.43,0,0,1-2.63,2.25,8,8,0,0,1-3.28.59,5.9,5.9,0,0,1-4.12-1.35A4.94,4.94,0,0,1,917.66,19q0-5.35,8.56-5.61l3-.1v-1.1a4.48,4.48,0,0,0-.89-3.07,3.68,3.68,0,0,0-2.86-1,11.65,11.65,0,0,0-5,1.35l-.82-2a12.6,12.6,0,0,1,2.86-1.11,12.39,12.39,0,0,1,3.12-.4,6.73,6.73,0,0,1,4.68,1.4q1.52,1.4,1.52,4.5V23.93Zm-6-1.89a5.43,5.43,0,0,0,3.92-1.37,5.07,5.07,0,0,0,1.43-3.83v-1.6l-2.68.11a9.72,9.72,0,0,0-4.6,1,3,3,0,0,0-1.41,2.73,2.76,2.76,0,0,0,.88,2.21A3.65,3.65,0,0,0,923.8,22Z"/><path class="cls-5" d="M948,8.56h-8V23.93h-2.67V6.27H948Z"/><path class="cls-5" d="M973.42,5.91a5.37,5.37,0,0,1-1.26,3.69,6.34,6.34,0,0,1-3.59,1.92v.13a6.74,6.74,0,0,1,4.21,1.8,5.31,5.31,0,0,1,1.37,3.8,6.17,6.17,0,0,1-2.34,5.18,10.63,10.63,0,0,1-6.64,1.81,19.23,19.23,0,0,1-3.42-.28,11.69,11.69,0,0,1-3-1V20.43A15.44,15.44,0,0,0,965.26,22q6.11,0,6.11-4.79,0-4.29-6.74-4.29h-2.32V10.6h2.35A7.08,7.08,0,0,0,969,9.39,4,4,0,0,0,970.64,6a3.33,3.33,0,0,0-1.18-2.71,4.88,4.88,0,0,0-3.21-1,9.92,9.92,0,0,0-2.92.42,13.05,13.05,0,0,0-3.13,1.55l-1.35-1.8a11.27,11.27,0,0,1,3.34-1.8,12.13,12.13,0,0,1,4-.65,8.15,8.15,0,0,1,5.33,1.57A5.29,5.29,0,0,1,973.42,5.91Z"/><path class="cls-5" d="M993.3,12.12q0,6.11-1.92,9.12a7.11,7.11,0,0,1-11.67-.07q-2-3.08-2-9,0-6.16,1.92-9.14a7.12,7.12,0,0,1,11.67.13Q993.3,6.22,993.3,12.12Zm-12.87,0q0,5.14,1.21,7.48a4.34,4.34,0,0,0,7.73,0q1.2-2.38,1.2-7.45t-1.2-7.44a4.36,4.36,0,0,0-7.73,0Q980.43,7,980.42,12.12Z"/><path class="cls-5" d="M1004.84,24.25a7.54,7.54,0,0,1-5.94-2.36,9.71,9.71,0,0,1-2.1-6.68q0-4.43,2.13-6.85A7.68,7.68,0,0,1,1005,5.95a12.09,12.09,0,0,1,2.55.27,8.42,8.42,0,0,1,2,.64l-.82,2.27a12.58,12.58,0,0,0-1.93-.59,8.64,8.64,0,0,0-1.85-.23q-5.38,0-5.38,6.86a8.18,8.18,0,0,0,1.31,5,4.57,4.57,0,0,0,3.89,1.74,11.9,11.9,0,0,0,4.53-1v2.37A9.66,9.66,0,0,1,1004.84,24.25Z"/><path class="cls-5" d="M1022.66,21.35l.5-1.5.69-1.9,4.79-11.65h3.4V23.93h-2.37V9.35l-.32.93-.93,2.47-4.56,11.18h-2.24l-4.56-11.21a33,33,0,0,1-1.18-3.37V23.93h-2.38V6.3h3.27l4.62,11.2A40.47,40.47,0,0,1,1022.66,21.35Z"/><path class="cls-5" d="M913.91,236.93H886.32V213.37h2.74v21.08h9.67V213.37h2.74v21.08h9.67V213.37h2.77Z"/><path class="cls-5" d="M930.85,236.93l-.53-2.51h-.13a7.44,7.44,0,0,1-2.63,2.25,8,8,0,0,1-3.28.59,5.9,5.9,0,0,1-4.12-1.35,4.94,4.94,0,0,1-1.49-3.85q0-5.35,8.56-5.61l3-.1v-1.1a4.48,4.48,0,0,0-.89-3.07,3.68,3.68,0,0,0-2.86-1,11.65,11.65,0,0,0-5,1.35l-.82-2a12.55,12.55,0,0,1,2.86-1.11,12.35,12.35,0,0,1,3.12-.4,6.73,6.73,0,0,1,4.68,1.4,5.85,5.85,0,0,1,1.52,4.5v12.05Zm-6-1.88a5.43,5.43,0,0,0,3.92-1.37,5.07,5.07,0,0,0,1.43-3.83v-1.6l-2.68.11a9.73,9.73,0,0,0-4.6,1,3,3,0,0,0-1.41,2.73,2.76,2.76,0,0,0,.88,2.21A3.65,3.65,0,0,0,924.8,235Z"/><path class="cls-5" d="M949,221.56h-8v15.37h-2.67V219.27H949Z"/><path class="cls-5" d="M967.18,222.54a8.66,8.66,0,0,1,5.86,1.84,6.32,6.32,0,0,1,2.13,5.05,7.3,7.3,0,0,1-2.33,5.74,9.3,9.3,0,0,1-6.42,2.08,11.81,11.81,0,0,1-6.08-1.27V233.4a9.22,9.22,0,0,0,2.8,1.14,13.85,13.85,0,0,0,3.3.41,6.6,6.6,0,0,0,4.41-1.34,4.8,4.8,0,0,0,1.57-3.87q0-4.93-6-4.93a24.15,24.15,0,0,0-4.09.47l-1.39-.89.89-11h11.71v2.47h-9.43l-.6,7.07A18.77,18.77,0,0,1,967.18,222.54Z"/><path class="cls-5" d="M994.3,225.12q0,6.11-1.92,9.12a7.11,7.11,0,0,1-11.67-.07q-2-3.08-2-9,0-6.16,1.92-9.14a7.12,7.12,0,0,1,11.67.13Q994.3,219.22,994.3,225.12Zm-12.87,0q0,5.14,1.21,7.48a4.34,4.34,0,0,0,7.73,0q1.2-2.38,1.2-7.45t-1.2-7.44a4.36,4.36,0,0,0-7.73,0Q981.43,220,981.42,225.12Z"/><path class="cls-5" d="M1005.84,237.25a7.54,7.54,0,0,1-5.94-2.36,9.7,9.7,0,0,1-2.1-6.68q0-4.43,2.13-6.85a7.68,7.68,0,0,1,6.08-2.42,12.15,12.15,0,0,1,2.55.27,8.51,8.51,0,0,1,2,.64l-.82,2.27a12.52,12.52,0,0,0-1.93-.59,8.67,8.67,0,0,0-1.85-.23q-5.38,0-5.38,6.86a8.18,8.18,0,0,0,1.31,5,4.57,4.57,0,0,0,3.89,1.74,11.9,11.9,0,0,0,4.53-1v2.37A9.67,9.67,0,0,1,1005.84,237.25Z"/><path class="cls-5" d="M1023.66,234.35l.5-1.5.69-1.9,4.79-11.65h3.4v17.63h-2.37V222.35l-.32.93-.93,2.47-4.56,11.18h-2.24l-4.56-11.21a33.07,33.07,0,0,1-1.18-3.37v14.58h-2.38V219.3h3.27l4.62,11.2A40.48,40.48,0,0,1,1023.66,234.35Z"/><path class="cls-5" d="M914.91,449.93H887.32V426.37h2.74v21.08h9.67V426.37h2.74v21.08h9.67V426.37h2.77Z"/><path class="cls-5" d="M931.85,449.93l-.53-2.51h-.13a7.44,7.44,0,0,1-2.63,2.25,8,8,0,0,1-3.28.59,5.9,5.9,0,0,1-4.12-1.35,4.94,4.94,0,0,1-1.49-3.85q0-5.35,8.56-5.61l3-.1v-1.1a4.48,4.48,0,0,0-.89-3.07,3.68,3.68,0,0,0-2.86-1,11.65,11.65,0,0,0-5,1.35l-.82-2a12.55,12.55,0,0,1,2.86-1.11,12.35,12.35,0,0,1,3.12-.4,6.73,6.73,0,0,1,4.68,1.4,5.85,5.85,0,0,1,1.52,4.5v12.05Zm-6-1.88a5.43,5.43,0,0,0,3.92-1.37,5.07,5.07,0,0,0,1.43-3.83v-1.6l-2.68.11a9.73,9.73,0,0,0-4.6,1,3,3,0,0,0-1.41,2.73,2.76,2.76,0,0,0,.88,2.21A3.65,3.65,0,0,0,925.8,448Z"/><path class="cls-5" d="M950,434.56h-8v15.37h-2.67V432.27H950Z"/><path class="cls-5" d="M961.09,439.86q0-6.95,2.7-10.39t8-3.44a10.63,10.63,0,0,1,2.87.31v2.3a9.15,9.15,0,0,0-2.84-.4A7.15,7.15,0,0,0,966,430.6q-2,2.36-2.19,7.42H964a6.17,6.17,0,0,1,5.61-2.77,6.59,6.59,0,0,1,5,1.92,7.23,7.23,0,0,1,1.83,5.21,8,8,0,0,1-2,5.78,7.14,7.14,0,0,1-5.42,2.1,7,7,0,0,1-5.8-2.75Q961.09,444.76,961.09,439.86ZM969,448a4.47,4.47,0,0,0,3.55-1.44,6.13,6.13,0,0,0,1.27-4.17,5.37,5.37,0,0,0-1.18-3.67,4.43,4.43,0,0,0-3.51-1.34,5.93,5.93,0,0,0-2.66.6,4.91,4.91,0,0,0-1.93,1.64,3.79,3.79,0,0,0-.72,2.17,7.44,7.44,0,0,0,.64,3.09,5.45,5.45,0,0,0,1.83,2.27A4.56,4.56,0,0,0,969,448Z"/><path class="cls-5" d="M995.3,438.12q0,6.11-1.92,9.12a7.11,7.11,0,0,1-11.67-.07q-2-3.08-2-9,0-6.16,1.92-9.14a7.12,7.12,0,0,1,11.67.13Q995.3,432.22,995.3,438.12Zm-12.87,0q0,5.14,1.21,7.48a4.34,4.34,0,0,0,7.73,0q1.2-2.38,1.2-7.45t-1.2-7.44a4.36,4.36,0,0,0-7.73,0Q982.43,433,982.42,438.12Z"/><path class="cls-5" d="M1006.84,450.25a7.54,7.54,0,0,1-5.94-2.36,9.7,9.7,0,0,1-2.1-6.68q0-4.43,2.13-6.85a7.68,7.68,0,0,1,6.08-2.42,12.15,12.15,0,0,1,2.55.27,8.51,8.51,0,0,1,2,.64l-.82,2.27a12.52,12.52,0,0,0-1.93-.59,8.67,8.67,0,0,0-1.85-.23q-5.38,0-5.38,6.86a8.18,8.18,0,0,0,1.31,5,4.57,4.57,0,0,0,3.89,1.74,11.9,11.9,0,0,0,4.53-1v2.37A9.67,9.67,0,0,1,1006.84,450.25Z"/><path class="cls-5" d="M1024.66,447.35l.5-1.5.69-1.9,4.79-11.65h3.4v17.63h-2.37V435.35l-.32.93-.93,2.47-4.56,11.18h-2.24l-4.56-11.21a33.07,33.07,0,0,1-1.18-3.37v14.58h-2.38V432.3h3.27l4.62,11.2A40.48,40.48,0,0,1,1024.66,447.35Z"/><path class="cls-5" d="M912.91,659.93H885.32V636.37h2.74v21.08h9.67V636.37h2.74v21.08h9.67V636.37h2.77Z"/><path class="cls-5" d="M929.85,659.93l-.53-2.51h-.13a7.44,7.44,0,0,1-2.63,2.25,8,8,0,0,1-3.28.59,5.9,5.9,0,0,1-4.12-1.35,4.94,4.94,0,0,1-1.49-3.85q0-5.35,8.56-5.61l3-.1v-1.1a4.48,4.48,0,0,0-.89-3.07,3.68,3.68,0,0,0-2.86-1,11.65,11.65,0,0,0-5,1.35l-.82-2a12.55,12.55,0,0,1,2.86-1.11,12.35,12.35,0,0,1,3.12-.4,6.73,6.73,0,0,1,4.68,1.4,5.85,5.85,0,0,1,1.52,4.5v12.05Zm-6-1.88a5.43,5.43,0,0,0,3.92-1.37,5.07,5.07,0,0,0,1.43-3.83v-1.6l-2.68.11a9.73,9.73,0,0,0-4.6,1,3,3,0,0,0-1.41,2.73,2.76,2.76,0,0,0,.88,2.21A3.65,3.65,0,0,0,923.8,658Z"/><path class="cls-5" d="M948,644.56h-8v15.37h-2.67V642.27H948Z"/><path class="cls-5" d="M961.8,659.93l9.77-21.09H958.72v-2.47H974.4v2.14l-9.64,21.41Z"/><path class="cls-5" d="M993.3,648.12q0,6.11-1.92,9.12a7.11,7.11,0,0,1-11.67-.07q-2-3.08-2-9,0-6.16,1.92-9.14a7.12,7.12,0,0,1,11.67.13Q993.3,642.22,993.3,648.12Zm-12.87,0q0,5.14,1.21,7.48a4.34,4.34,0,0,0,7.73,0q1.2-2.38,1.2-7.45t-1.2-7.44a4.36,4.36,0,0,0-7.73,0Q980.43,643,980.42,648.12Z"/><path class="cls-5" d="M1004.84,660.25a7.54,7.54,0,0,1-5.94-2.36,9.7,9.7,0,0,1-2.1-6.68q0-4.43,2.13-6.85a7.68,7.68,0,0,1,6.08-2.42,12.15,12.15,0,0,1,2.55.27,8.51,8.51,0,0,1,2,.64l-.82,2.27a12.52,12.52,0,0,0-1.93-.59,8.67,8.67,0,0,0-1.85-.23q-5.38,0-5.38,6.86a8.18,8.18,0,0,0,1.31,5,4.57,4.57,0,0,0,3.89,1.74,11.9,11.9,0,0,0,4.53-1v2.37A9.67,9.67,0,0,1,1004.84,660.25Z"/><path class="cls-5" d="M1022.66,657.35l.5-1.5.69-1.9,4.79-11.65h3.4v17.63h-2.37V645.35l-.32.93-.93,2.47-4.56,11.18h-2.24l-4.56-11.21a33.07,33.07,0,0,1-1.18-3.37v14.58h-2.38V642.3h3.27l4.62,11.2A40.48,40.48,0,0,1,1022.66,657.35Z"/></g></g></svg>