<svg xmlns="http://www.w3.org/2000/svg" viewBox="0 0 1102.5 284.96"><defs><style>.cls-1,.cls-2,.cls-6{fill:none;}.cls-1,.cls-2,.cls-3,.cls-4{stroke:#666;stroke-miterlimit:10;}.cls-1,.cls-3{stroke-width:3px;}.cls-3,.cls-4,.cls-5{fill:#666;}</style></defs><title>Ресурс 2</title><g id="Слой_2" data-name="Слой 2"><g id="garland"><path class="cls-1" d="M21.5,87.5c-13,0-20-10.52-20-23.5A23.5,23.5,0,0,1,25,40.5"/><path class="cls-2" d="M21,87.5"/><path class="cls-1" d="M20.5,87.5c9.66,0,18,7.84,18,17.5"/><line class="cls-3" x1="38.5" y1="230.5" x2="38.5" y2="104.5"/><line class="cls-1" x1="24.5" y1="40.5" x2="1069.5" y2="40.5"/><rect class="cls-4" x="33" y="230" width="10" height="12"/><rect class="cls-4" x="30" y="268" width="3" height="15"/><rect class="cls-4" x="43" y="268" width="3" height="15"/><path class="cls-4" d="M49.5,253.5l-.21-.36-.37-.64H26.84a1.34,1.34,0,0,0-1.34,1.34v13.33a1.34,1.34,0,0,0,1.34,1.34H49.16a1.34,1.34,0,0,0,1.34-1.34V253.84a1.34,1.34,0,0,0-1.34-1.34h-.25l-6.42-11h-9l-6.42,11-.58,1"/><circle class="cls-2" cx="375.5" cy="10.5" r="10"/><rect class="cls-5" x="364" y="36" width="22" height="8"/><rect class="cls-4" x="367.5" y="23.5" width="16" height="3"/><rect class="cls-4" x="368.5" y="26.5" width="14" height="10"/><rect class="cls-4" x="371.5" y="20.5" width="8" height="3"/><circle class="cls-2" cx="232.5" cy="10.5" r="10"/><rect class="cls-5" x="221" y="36" width="22" height="8"/><rect class="cls-4" x="224.5" y="23.5" width="16" height="3"/><rect class="cls-4" x="225.5" y="26.5" width="14" height="10"/><rect class="cls-4" x="228.5" y="20.5" width="8" height="3"/><circle class="cls-2" cx="517.5" cy="10.5" r="10"/><rect class="cls-5" x="506" y="36" width="22" height="8"/><rect class="cls-4" x="509.5" y="23.5" width="16" height="3"/><rect class="cls-4" x="510.5" y="26.5" width="14" height="10"/><rect class="cls-4" x="513.5" y="20.5" width="8" height="3"/><circle class="cls-2" cx="659.5" cy="10.5" r="10"/><rect class="cls-5" x="648" y="36" width="22" height="8"/><rect class="cls-4" x="651.5" y="23.5" width="16" height="3"/><rect class="cls-4" x="652.5" y="26.5" width="14" height="10"/><rect class="cls-4" x="655.5" y="20.5" width="8" height="3"/><circle class="cls-2" cx="800.5" cy="10.5" r="10"/><rect class="cls-5" x="789" y="36" width="22" height="8"/><rect class="cls-4" x="792.5" y="23.5" width="16" height="3"/><rect class="cls-4" x="793.5" y="26.5" width="14" height="10"/><rect class="cls-4" x="796.5" y="20.5" width="8" height="3"/><circle class="cls-2" cx="942.5" cy="10.5" r="10"/><rect class="cls-5" x="931" y="36" width="22" height="8"/><rect class="cls-4" x="934.5" y="23.5" width="16" height="3"/><rect class="cls-4" x="935.5" y="26.5" width="14" height="10"/><rect class="cls-4" x="938.5" y="20.5" width="8" height="3"/><circle class="cls-2" cx="91.5" cy="10.5" r="10"/><rect class="cls-5" x="80" y="36" width="22" height="8"/><rect class="cls-4" x="83.5" y="23.5" width="16" height="3"/><rect class="cls-4" x="84.5" y="26.5" width="14" height="10"/><rect class="cls-4" x="87.5" y="20.5" width="8" height="3"/><path class="cls-1" d="M1068.5,40.5a32,32,0,0,1,0,64"/><line class="cls-1" x1="1069.5" y1="104.5" x2="1053.5" y2="104.5"/><line class="cls-6" x1="518" y1="44" x2="518" y2="181"/><line class="cls-2" x1="660" y1="44" x2="660" y2="181"/><line class="cls-2" x1="517.5" y1="43.5" x2="517.5" y2="180.5"/><line class="cls-2" x1="518" y1="181" x2="659" y2="181"/><line class="cls-2" x1="37.99" y1="229.03" x2="69.5" y2="228.77"/><line class="cls-2" x1="522" y1="179" x2="517" y2="181"/><line class="cls-2" x1="522" y1="183" x2="517" y2="181"/><line class="cls-4" x1="69" y1="40" x2="69.5" y2="228.5"/><line class="cls-2" x1="67.5" y1="223.5" x2="69.5" y2="228.5"/><line class="cls-2" x1="71.5" y1="223.5" x2="69.5" y2="228.5"/><line class="cls-2" x1="71" y1="46.5" x2="69" y2="41.5"/><line class="cls-2" x1="67" y1="46.5" x2="69" y2="41.5"/><line class="cls-2" x1="655" y1="183" x2="660" y2="181"/><line class="cls-2" x1="655" y1="179" x2="660" y2="181"/><line class="cls-2" x1="1096.5" y1="284.5" x2="1101.5" y2="282.5"/><line class="cls-2" x1="1096.5" y1="280.5" x2="1101.5" y2="282.5"/><line class="cls-2" x1="96" y1="280.5" x2="91" y2="282.5"/><line class="cls-2" x1="96" y1="284.5" x2="91" y2="282.5"/><line class="cls-2" x1="92" y1="44" x2="91" y2="283"/><line class="cls-2" x1="1100" y1="72" x2="1102" y2="283"/><line class="cls-2" x1="90.5" y1="282.5" x2="1101.5" y2="282.5"/></g></g></svg>