<svg xmlns="http://www.w3.org/2000/svg" viewBox="0 0 241.29 36.94"><defs><style>.cls-1{fill:#FFBF40;}</style></defs><path d="M15.21,36.94V31.66H14.7a17.86,17.86,0,0,1-7.64-1.54,11.81,11.81,0,0,1-5.17-4.61A12.77,12.77,0,0,1,0,18.7a12.92,12.92,0,0,1,1.68-6.55A11.65,11.65,0,0,1,6.52,7.58,15.89,15.89,0,0,1,14,5.93h1.24V1.71h6.54V5.93H23a15.84,15.84,0,0,1,7.43,1.65,11.73,11.73,0,0,1,4.85,4.57A12.85,12.85,0,0,1,37,18.7a12.77,12.77,0,0,1-1.89,6.82,11.81,11.81,0,0,1-5.17,4.61,17.86,17.86,0,0,1-7.64,1.54h-.52v5.27Zm0-25.34h-1a7.5,7.5,0,0,0-5.44,1.92,6.8,6.8,0,0,0-2,5.13A7.11,7.11,0,0,0,8.93,24a8.27,8.27,0,0,0,6,2h.33Zm6.54,14.46h.33a8.39,8.39,0,0,0,5.92-2,7,7,0,0,0,2.14-5.43,6.81,6.81,0,0,0-2-5.12,7.48,7.48,0,0,0-5.44-1.93h-1Z"/><path d="M49.29,10.27V20.63q0,1.64-.54,8L60.85,10.27h8.6v26.2H62.53V26q0-2.79.47-7.87L51,36.47H42.38V10.27Z"/><path d="M84.1,36.47H76.95V0H84.1Z"/><path d="M108.24,36.47l-1.38-3.56h-.19A10.56,10.56,0,0,1,103,36.06a12,12,0,0,1-5,.88A8.05,8.05,0,0,1,92,34.78a8.28,8.28,0,0,1-2.17-6.14,6.91,6.91,0,0,1,2.92-6.15q2.92-2,8.8-2.19l4.55-.14V19q0-4-4.08-4a18.58,18.58,0,0,0-7.38,1.9L92.3,12.09a21.3,21.3,0,0,1,10-2.37q5.27,0,8.09,2.3t2.81,7V36.47Zm-2.11-12.14-2.77.09a8.86,8.86,0,0,0-4.64,1.13,3.53,3.53,0,0,0-1.52,3.14q0,3,3.47,3a5.49,5.49,0,0,0,4-1.43,5,5,0,0,0,1.49-3.8Z"/><path class="cls-1" d="M135.66,36.47,127.41,9.59h-.21q.45,8.2.45,10.95V36.47h-6.49V2.2H131l8.11,26.2h.14l8.6-26.2h9.89V36.47H151V20.25q0-1.15,0-2.65t.32-8h-.21l-8.84,26.84Z"/><path d="M177.71,36.94q-6.33,0-9.89-3.49t-3.56-9.89q0-6.59,3.29-10.18t9.11-3.6q5.55,0,8.65,3.16t3.09,8.74v3.47h-16.9a6.88,6.88,0,0,0,1.8,4.76A6.35,6.35,0,0,0,178,31.62a19.65,19.65,0,0,0,4.48-.49,22.4,22.4,0,0,0,4.41-1.57v5.53a16.79,16.79,0,0,1-4,1.39A25.27,25.27,0,0,1,177.71,36.94Zm-1-22.08a4.53,4.53,0,0,0-3.56,1.44,6.67,6.67,0,0,0-1.48,4.09h10a6,6,0,0,0-1.38-4.09A4.68,4.68,0,0,0,176.7,14.86Z"/><path d="M218.39,36.47h-7.15V21.16a7.35,7.35,0,0,0-1-4.25A3.67,3.67,0,0,0,207,15.49a4.83,4.83,0,0,0-4.34,2q-1.34,2-1.34,6.64V36.47h-7.15V10.27h5.46l1,3.35h.4a7.55,7.55,0,0,1,3.29-2.87,11.21,11.21,0,0,1,4.77-1q4.57,0,6.94,2.47t2.37,7.14Z"/><path d="M236.79,31.24a15.5,15.5,0,0,0,4.5-.82v5.32a16,16,0,0,1-6.56,1.2q-4.29,0-6.25-2.17t-2-6.5V15.63H223.1v-3L227,10.22l2.06-5.53h4.57v5.58H241v5.37h-7.34V28.27a2.79,2.79,0,0,0,.86,2.25A3.38,3.38,0,0,0,236.79,31.24Z"/></svg>